<svg width="22" height="20" viewBox="0 0 22 20" fill="none" xmlns="http://www.w3.org/2000/svg">
<path d="M21.0876 18.1787L20.3292 15.5237C20.8662 14.4854 21.1394 13.3308 21.1248 12.1619C21.1102 10.9929 20.8082 9.84553 20.2455 8.82088C19.6827 7.79623 18.8764 6.92578 17.8978 6.28632C16.9192 5.64685 15.7983 5.258 14.6339 5.15406C14.2822 4.25264 13.7506 3.43229 13.0715 2.74303C12.3924 2.05378 11.5801 1.51007 10.684 1.14504C9.7879 0.780022 8.82684 0.601343 7.85943 0.619902C6.89202 0.638462 5.93852 0.85387 5.05709 1.25299C4.17565 1.65212 3.38475 2.22659 2.7326 2.94138C2.08045 3.65618 1.58072 4.49631 1.26389 5.41056C0.947059 6.3248 0.819763 7.294 0.889765 8.25906C0.959766 9.22411 1.2256 10.1648 1.67105 11.0237L0.912612 13.6787C0.872558 13.8182 0.865433 13.9651 0.891798 14.1078C0.918162 14.2505 0.977296 14.3852 1.06454 14.5011C1.15179 14.6171 1.26477 14.7112 1.39458 14.7761C1.52439 14.841 1.66749 14.8748 1.81261 14.875C1.90144 14.8749 1.98981 14.8623 2.07511 14.8375L4.73011 14.0791C5.55112 14.5033 6.44682 14.7638 7.3673 14.8459C7.73095 15.7759 8.286 16.619 8.99647 17.3207C9.70693 18.0223 10.5569 18.5668 11.4914 18.9188C12.4258 19.2708 13.4238 19.4224 14.4206 19.3639C15.4174 19.3054 16.3908 19.038 17.2776 18.5791L19.9326 19.3375C20.0179 19.3623 20.1063 19.3749 20.1951 19.375C20.3399 19.3743 20.4826 19.34 20.6119 19.2748C20.7412 19.2097 20.8537 19.1155 20.9406 18.9996C21.0274 18.8837 21.0862 18.7493 21.1124 18.6069C21.1385 18.4645 21.1313 18.3179 21.0914 18.1787H21.0876ZM4.76855 13.3037C4.73362 13.3036 4.69886 13.3087 4.66542 13.3187L1.86511 14.1184C1.833 14.1275 1.79904 14.1279 1.76673 14.1195C1.73443 14.1111 1.70495 14.0942 1.68135 14.0706C1.65774 14.047 1.64087 14.0176 1.63247 13.9853C1.62406 13.9529 1.62444 13.919 1.63355 13.8869L2.43324 11.0866C2.46005 10.9924 2.44894 10.8914 2.4023 10.8053C1.6685 9.45915 1.44443 7.89362 1.77114 6.39566C2.09785 4.89771 2.95346 3.56767 4.18116 2.64932C5.40886 1.73096 6.9264 1.28582 8.45565 1.39547C9.9849 1.50513 11.4234 2.16223 12.5075 3.24634C13.5916 4.33046 14.2487 5.76897 14.3584 7.29821C14.468 8.82746 14.0229 10.345 13.1045 11.5727C12.1862 12.8004 10.8562 13.656 9.3582 13.9827C7.86024 14.3094 6.29471 14.0854 4.94855 13.3516C4.8937 13.3201 4.83178 13.303 4.76855 13.3019V13.3037ZM20.3189 18.5687C20.2949 18.593 20.2648 18.6103 20.2318 18.6187C20.1987 18.6271 20.164 18.6264 20.1314 18.6166L17.3311 17.8169C17.2369 17.7901 17.1359 17.8012 17.0498 17.8478C16.2795 18.2679 15.4307 18.5245 14.5566 18.6014C13.6825 18.6784 12.802 18.5741 11.9701 18.295C11.1382 18.0159 10.3729 17.5682 9.722 16.9797C9.07114 16.3912 8.54878 15.6747 8.18761 14.875C9.26126 14.8466 10.3146 14.5759 11.2689 14.0831C12.2232 13.5903 13.0537 12.8881 13.6983 12.029C14.343 11.17 14.7851 10.1763 14.9916 9.12231C15.198 8.06832 15.1636 6.98129 14.8907 5.9425C15.9108 6.08635 16.8809 6.47529 17.7178 7.076C18.5547 7.67671 19.2336 8.4713 19.6963 9.39174C20.159 10.3122 20.3918 11.331 20.3747 12.3611C20.3575 13.3912 20.091 14.4017 19.5979 15.3062C19.5513 15.3924 19.5402 15.4933 19.567 15.5875L20.3667 18.3878C20.3753 18.4195 20.3753 18.4529 20.367 18.4847C20.3586 18.5164 20.342 18.5454 20.3189 18.5687Z" fill="white"/>
</svg>
