<svg width="15" height="14" viewBox="0 0 15 14" fill="none" xmlns="http://www.w3.org/2000/svg">
<path fill-rule="evenodd" clip-rule="evenodd" d="M10.9181 0.64301C10.7801 0.422647 10.577 0.250765 10.3368 0.15129C10.0966 0.051814 9.83139 0.029694 9.57805 0.0880095L7.78005 0.50101C7.59579 0.543361 7.40432 0.543361 7.22005 0.50101L5.42205 0.0880095C5.16872 0.029694 4.9035 0.051814 4.66333 0.15129C4.42315 0.250765 4.21997 0.422647 4.08205 0.64301L3.10205 2.20701C3.00205 2.36701 2.86705 2.50201 2.70705 2.60301L1.14305 3.58301C0.923071 3.7208 0.751441 3.92366 0.651987 4.16342C0.552532 4.40319 0.530187 4.66797 0.588053 4.92101L1.00105 6.72101C1.04325 6.90495 1.04325 7.09607 1.00105 7.28001L0.588053 9.07901C0.529962 9.3322 0.552195 9.5972 0.65166 9.83717C0.751125 10.0771 0.922881 10.2802 1.14305 10.418L2.70705 11.398C2.86705 11.498 3.00205 11.633 3.10305 11.793L4.08305 13.357C4.36505 13.808 4.90305 14.031 5.42205 13.912L7.22005 13.499C7.40432 13.4567 7.59579 13.4567 7.78005 13.499L9.57905 13.912C9.83224 13.9701 10.0972 13.9479 10.3372 13.8484C10.5772 13.7489 10.7802 13.5772 10.9181 13.357L11.8981 11.793C11.9981 11.633 12.1331 11.498 12.2931 11.398L13.8581 10.418C14.0782 10.28 14.2499 10.0767 14.3492 9.83655C14.4485 9.59638 14.4705 9.33124 14.4121 9.07801L14.0001 7.28001C13.9577 7.09574 13.9577 6.90427 14.0001 6.72001L14.4131 4.92101C14.4712 4.66792 14.4492 4.403 14.3499 4.16304C14.2506 3.92308 14.079 3.72 13.8591 3.58201L12.2941 2.60201C12.1343 2.50183 11.9992 2.36679 11.8991 2.20701L10.9181 0.64301ZM10.4151 4.77001C10.4769 4.65628 10.4922 4.52298 10.4578 4.39818C10.4234 4.27338 10.3419 4.16679 10.2305 4.10085C10.1191 4.03491 9.98641 4.01476 9.86044 4.04463C9.73447 4.0745 9.625 4.15206 9.55505 4.26101L6.94005 8.68701L5.36105 7.17501C5.31421 7.12691 5.25816 7.08874 5.19624 7.06277C5.13433 7.0368 5.06782 7.02357 5.00068 7.02386C4.93354 7.02416 4.86715 7.03797 4.80546 7.06448C4.74377 7.09098 4.68806 7.12964 4.64164 7.17815C4.59521 7.22665 4.55903 7.28401 4.53526 7.3468C4.51148 7.40959 4.5006 7.47652 4.50325 7.54361C4.5059 7.6107 4.52204 7.67656 4.55069 7.73728C4.57935 7.798 4.61995 7.85232 4.67005 7.89701L6.70405 9.84601C6.75849 9.89806 6.82399 9.93714 6.89565 9.96034C6.96731 9.98353 7.04328 9.99023 7.1179 9.97994C7.19251 9.96965 7.26384 9.94264 7.32655 9.90092C7.38926 9.8592 7.44173 9.80385 7.48005 9.73901L10.4151 4.77001Z" fill="#00A3FF"/>
</svg>
