<svg width="24" height="24" viewBox="0 0 24 24" fill="none" xmlns="http://www.w3.org/2000/svg">
<path d="M12 19.654L11.242 18.969C9.61 17.4784 8.26 16.2024 7.192 15.141C6.12467 14.079 5.282 13.1424 4.664 12.331C4.046 11.5197 3.614 10.7864 3.368 10.131C3.122 9.47569 2.99934 8.81536 3 8.15002C3 6.87802 3.432 5.81002 4.296 4.94602C5.16 4.08202 6.228 3.65002 7.5 3.65002C8.38 3.65002 9.205 3.87502 9.975 4.32502C10.745 4.77502 11.42 5.42969 12 6.28902C12.58 5.42969 13.255 4.77502 14.025 4.32502C14.795 3.87502 15.62 3.65002 16.5 3.65002C17.772 3.65002 18.84 4.08202 19.704 4.94602C20.568 5.81002 21 6.87802 21 8.15002C21 8.81402 20.8773 9.47402 20.632 10.13C20.386 10.7874 19.954 11.5214 19.336 12.332C18.718 13.1427 17.8783 14.079 16.817 15.141C15.7557 16.2024 14.4023 17.4784 12.757 18.969L12 19.654ZM12 18.3C13.6 16.8534 14.9167 15.6147 15.95 14.584C16.9833 13.5534 17.8 12.6584 18.4 11.899C19 11.1397 19.4167 10.468 19.65 9.88402C19.8833 9.29869 20 8.72069 20 8.15002C20 7.15002 19.6667 6.31669 19 5.65002C18.3333 4.98336 17.5 4.65002 16.5 4.65002C15.704 4.65002 14.9693 4.87736 14.296 5.33202C13.6227 5.78669 13.0207 6.47102 12.49 7.38502H11.512C10.9673 6.45836 10.3617 5.77069 9.695 5.32202C9.02834 4.87402 8.297 4.65002 7.501 4.65002C6.51434 4.65002 5.68434 4.98336 5.011 5.65002C4.33767 6.31669 4.00067 7.15002 4 8.15002C4 8.72069 4.11667 9.29869 4.35 9.88402C4.58334 10.4694 5 11.141 5.6 11.899C6.2 12.657 7.01667 13.5487 8.05 14.574C9.08334 15.5994 10.4 16.8414 12 18.3Z" fill="black"/>
</svg>
