<svg width="23" height="18" viewBox="0 0 23 18" fill="none" xmlns="http://www.w3.org/2000/svg">
<path d="M11.06 5.51501V13.645H19.82C21.67 13.515 22.5 12.375 22.5 10.975C22.5 9.49501 21.38 8.30501 19.88 8.30501C19.5 8.30501 19.18 8.38501 18.85 8.52501C18.61 6.18501 16.62 4.35501 14.17 4.35501C13 4.35501 11.89 4.79501 11.06 5.51501ZM10.18 6.53501C9.88 6.35501 9.56 6.21501 9.21 6.14501V13.645H10.6V5.98501C10.45 6.14501 10.31 6.34501 10.18 6.53501ZM7.83 5.99501V13.645H8.75V6.02501C8.56 5.99501 8.37 5.98501 8.17 5.98501C8.05 5.98501 7.94 5.98501 7.83 5.99501ZM6 6.64501V13.645H6.91V6.18501C6.58 6.29501 6.27 6.45501 6 6.64501ZM4.33 9.14501C4.27 9.14501 4.21 9.08501 4.14 9.05501V13.645H5.06V7.50501C4.69 7.98501 4.44 8.55501 4.33 9.14501ZM2.29 8.86501V13.555C2.5 13.615 2.74 13.645 3 13.645H3.22V8.78501C3.14 8.77501 3.06 8.76501 3 8.76501C2.74 8.76501 2.5 8.80501 2.29 8.86501ZM0.5 11.205C0.5 11.955 0.84 12.615 1.37 13.065V9.35501C0.84 9.79501 0.5 10.465 0.5 11.205Z" fill="#AAA9A9"/>
</svg>
